# Alias OBJ Model File
# Exported from SketchUp, (c) 2000-2012 Trimble Navigation Limited
# File units = meters

mtllib TestCube.mtl

g Mesh1 Model

usemtl FrontColor
v -0.5 -0.5 0.5
vt 19.685 -19.685
vn 0 -1 -0
v -0.5 -0.5 -0.5
vt 19.685 19.685
v 0.5 -0.5 -0.5
vt -19.685 19.685
v 0.5 -0.5 0.5
vt -19.685 -19.685
f 1/1/1 2/2/1 3/3/1 4/4/1 

vn -1 0 -0
v -0.5 0.5 0.5
v -0.5 0.5 -0.5
f 2/4/2 1/1/2 5/2/2 6/3/2 

g Mesh2 Model

usemtl Color_I06
vn 0 0 1
v 0.5 0.5 0.5
f 1/4/3 4/1/3 7/2/3 5/3/3 

g Mesh3 Model

usemtl Color_A01
vn 1 0 -0
v 0.5 0.5 -0.5
f 4/4/4 3/1/4 8/2/4 7/3/4 

g Mesh4 Model

usemtl FrontColor
vn 0 0 -1
f 3/4/5 2/1/5 6/2/5 8/3/5 

g Mesh5 Model

usemtl Color_G06
vn 0 1 -0
f 6/3/6 5/4/6 7/1/6 8/2/6 

